<svg width="180" height="180" viewBox="0 0 180 180" fill="none" xmlns="http://www.w3.org/2000/svg">
  <rect width="180" height="180" rx="42" fill="#1F5E49"/>
  <path d="M48 119V59H68V101.5H112V119H48Z" fill="#F6F7F2"/>
  <path d="M96.8 58C122.5 58 143 77.7 143 102.3V119H125.3V102.7C125.3 88.3 114.1 76.8 98.8 76.8C93.5 76.8 88.7 78.2 84.4 80.7L77 65C82.7 60.7 89.5 58 96.8 58Z" fill="#9FD5BF"/>
  <path d="M98.8 133.5C83.1 133.5 70.5 121.2 70.5 106C70.5 91.1 83.1 78.8 98.8 78.8V94.8C92 94.8 87.1 99.4 87.1 106C87.1 112.8 92.2 117.4 98.8 117.4C105.4 117.4 110.5 112.8 110.5 106H127.1C127.1 121.2 114.5 133.5 98.8 133.5Z" fill="#C89B5C"/>
</svg>
