<svg width="170" height="44" viewBox="0 0 170 44" fill="none" xmlns="http://www.w3.org/2000/svg" role="img" aria-labelledby="title">
  <title id="title">Labora</title>
  <g transform="translate(0 -1) scale(0.36)">
    <path d="M19 105L56 37H73L45 91H76L84 105H19Z" fill="#2F8F6B"/>
    <circle cx="62" cy="35" r="13" fill="#2F8F6B"/>
    <path fill-rule="evenodd" clip-rule="evenodd" d="M84 56C101 56 113 68 114 84V105H96V98C91 104 84 107 76 107C60 107 48 96 48 81C48 66 60 56 76 56H84ZM82 71C73 71 66 77 66 84C66 92 73 98 82 98C91 98 98 92 98 84C98 77 91 71 82 71Z" fill="#2F8F6B"/>
  </g>
  <text x="50" y="30" fill="#1F2421" font-family="Manrope, Inter, Arial, sans-serif" font-size="26" font-weight="800" letter-spacing="0">Labora</text>
</svg>
