<svg width="160" height="44" viewBox="0 0 160 44" fill="none" xmlns="http://www.w3.org/2000/svg">
  <rect width="44" height="44" rx="12" fill="#2F8F6B"/>
  <path d="M14 30V14H19V25H31V30H14Z" fill="white"/>
  <path d="M58 30V14H63.2V25.4H76V30H58Z" fill="#1F2421"/>
  <path d="M83 30V14H97.4V18.3H88.2V20.4H96.7V24.5H88.2V25.7H97.7V30H83Z" fill="#1F2421"/>
  <path d="M104 30V14H114.6C119.2 14 121.6 16.5 121.6 20C121.6 22.8 119.9 24.6 117.1 25.2L122.4 30H116L111.5 25.7H109.2V30H104ZM109.2 21.8H114C115.3 21.8 116.2 21.1 116.2 20C116.2 18.9 115.3 18.2 114 18.2H109.2V21.8Z" fill="#1F2421"/>
  <path d="M128.5 30L135.5 14H141.1L148 30H142.5L141.5 27.5H134.8L133.8 30H128.5ZM136.4 23.6H139.9L138.1 19.1L136.4 23.6Z" fill="#1F2421"/>
</svg>
