<svg width="180" height="48" viewBox="0 0 180 48" fill="none" xmlns="http://www.w3.org/2000/svg" role="img" aria-labelledby="title">
  <title id="title">Labora</title>
  <rect x="2" y="6" width="36" height="36" rx="10" fill="#1F5E49"/>
  <path d="M12 30.5V17.5H16.2V26.7H25.7V30.5H12Z" fill="#F6F7F2"/>
  <path d="M22.5 17.5C28.1 17.5 32.5 21.8 32.5 27.1V30.5H28.7V27.2C28.7 24 26.2 21.4 22.8 21.4C21.7 21.4 20.6 21.7 19.7 22.2L18.1 18.8C19.4 18 20.9 17.5 22.5 17.5Z" fill="#9FD5BF"/>
  <path d="M22.8 33.6C19.4 33.6 16.7 30.9 16.7 27.6C16.7 24.4 19.4 21.7 22.8 21.7V25.1C21.3 25.1 20.3 26.1 20.3 27.6C20.3 29.1 21.4 30.1 22.8 30.1C24.2 30.1 25.3 29.1 25.3 27.6H28.9C28.9 30.9 26.2 33.6 22.8 33.6Z" fill="#C89B5C"/>
  <path d="M51.2 33V15H56.9V28.1H70.8V33H51.2Z" fill="#1F2421"/>
  <path d="M83.1 33.4C78.6 33.4 75.2 30.2 75.2 25.9C75.2 21.6 78.6 18.4 83.1 18.4C85.1 18.4 86.9 19.1 88.1 20.4V18.8H93.2V33H88.1V31.4C86.9 32.7 85.1 33.4 83.1 33.4ZM84.3 29.1C86.5 29.1 88.1 27.7 88.1 25.9C88.1 24.1 86.5 22.7 84.3 22.7C82.2 22.7 80.6 24.1 80.6 25.9C80.6 27.7 82.2 29.1 84.3 29.1Z" fill="#1F2421"/>
  <path d="M106.5 33.4C104.4 33.4 102.7 32.7 101.5 31.4V33H96.4V14H101.5V20.4C102.7 19.1 104.4 18.4 106.5 18.4C110.9 18.4 114.3 21.6 114.3 25.9C114.3 30.2 110.9 33.4 106.5 33.4ZM105.2 29.1C107.4 29.1 109 27.7 109 25.9C109 24.1 107.4 22.7 105.2 22.7C103.1 22.7 101.5 24.1 101.5 25.9C101.5 27.7 103.1 29.1 105.2 29.1Z" fill="#1F2421"/>
  <path d="M124.6 33.4C119.8 33.4 116.1 30.2 116.1 25.9C116.1 21.6 119.8 18.4 124.6 18.4C129.5 18.4 133.2 21.6 133.2 25.9C133.2 30.2 129.5 33.4 124.6 33.4ZM124.6 29.1C126.7 29.1 128 27.8 128 25.9C128 24 126.7 22.7 124.6 22.7C122.6 22.7 121.3 24 121.3 25.9C121.3 27.8 122.6 29.1 124.6 29.1Z" fill="#1F2421"/>
  <path d="M135.8 33V18.8H140.9V21.1C141.8 19.5 143.5 18.6 145.7 18.6H147.2V23.2H145.1C142.6 23.2 140.9 24.6 140.9 27.2V33H135.8Z" fill="#1F2421"/>
  <path d="M156.7 33.4C152.2 33.4 148.8 30.2 148.8 25.9C148.8 21.6 152.2 18.4 156.7 18.4C158.7 18.4 160.5 19.1 161.7 20.4V18.8H166.8V33H161.7V31.4C160.5 32.7 158.7 33.4 156.7 33.4ZM157.9 29.1C160.1 29.1 161.7 27.7 161.7 25.9C161.7 24.1 160.1 22.7 157.9 22.7C155.8 22.7 154.2 24.1 154.2 25.9C154.2 27.7 155.8 29.1 157.9 29.1Z" fill="#1F2421"/>
</svg>
